<?xml version="1.0" standalone="no"?>
<!DOCTYPE svg PUBLIC "-//W3C//DTD SVG 20010904//EN"
 "http://www.w3.org/TR/2001/REC-SVG-20010904/DTD/svg10.dtd">
<svg version="1.0" xmlns="http://www.w3.org/2000/svg"
 width="201.000000pt" height="249.000000pt" viewBox="0 0 201.000000 249.000000"
 preserveAspectRatio="xMidYMid meet">

<g transform="translate(0.000000,249.000000) scale(0.100000,-0.100000)"
fill="#000000" stroke="none">
<path d="M1106 2162 c-2 -4 -1 -14 5 -22 12 -20 11 -43 -1 -35 -5 3 -10 0 -10
-7 -1 -9 -5 -8 -13 4 -12 15 -14 15 -25 -3 -15 -24 -32 -25 -32 -1 0 14 -2 15
-10 2 -5 -8 -10 -11 -10 -7 0 4 -8 4 -17 -2 -10 -5 -24 -6 -33 -1 -14 7 -16 4
-12 -21 3 -17 0 -29 -7 -29 -6 0 -11 -6 -11 -14 0 -16 -24 -28 -44 -20 -9 3
-20 -9 -32 -35 -11 -23 -24 -39 -31 -36 -7 2 -13 -2 -13 -10 0 -8 -4 -15 -10
-15 -5 0 -13 -12 -16 -27 -11 -41 -45 -83 -68 -83 -26 0 -51 -36 -37 -53 11
-14 3 -67 -11 -67 -5 0 -6 -4 -3 -10 3 -5 1 -10 -4 -10 -15 0 -14 16 4 50 9
18 11 31 5 35 -6 3 -11 3 -12 -2 0 -4 -2 -12 -3 -18 -1 -5 -5 -18 -10 -28 -4
-9 -2 -30 4 -45 7 -18 8 -38 2 -59 -5 -18 -8 -38 -7 -45 9 -50 19 -78 28 -78
6 0 7 -7 4 -16 -3 -8 1 -31 9 -51 8 -19 16 -66 17 -104 2 -38 7 -69 11 -69 5
0 6 -12 3 -27 -8 -36 19 -140 45 -176 33 -45 46 -97 47 -185 l0 -83 -20 26
c-11 14 -23 24 -26 21 -2 -3 7 -21 22 -41 24 -32 25 -39 4 -36 -4 0 -5 -6 -2
-14 5 -11 2 -13 -10 -9 -11 4 -16 1 -16 -11 0 -20 25 -47 35 -37 4 4 5 0 3 -8
-2 -9 16 -24 47 -40 28 -14 52 -28 53 -33 2 -4 8 -4 14 -1 6 4 5 -3 -2 -15
-14 -27 -5 -58 21 -72 18 -9 19 -8 10 9 -10 19 -6 32 11 32 5 0 6 -4 3 -10 -3
-5 -2 -10 4 -10 5 0 13 5 16 10 3 6 16 10 28 10 16 0 18 -3 9 -9 -11 -7 -10
-10 3 -15 32 -12 48 -7 42 14 -5 19 -2 20 31 15 36 -5 36 -5 7 5 -16 6 -46 8
-65 6 -22 -4 -30 -2 -21 3 11 7 10 10 -5 14 -10 2 6 5 36 6 31 0 80 10 110 21
30 12 63 23 73 27 9 3 17 10 17 17 0 6 3 22 7 35 5 21 4 22 -14 12 -16 -8 -24
-7 -33 4 -7 8 -9 15 -4 15 5 0 19 8 32 18 22 17 22 18 2 18 -11 0 -20 -4 -20
-8 0 -4 -4 -8 -10 -8 -5 0 -10 7 -10 15 0 8 5 15 10 15 6 0 9 13 8 29 -2 28
24 92 49 118 6 7 15 23 19 36 4 12 18 36 31 54 22 28 32 54 50 127 3 11 9 68
13 126 10 126 25 237 38 270 8 22 19 91 27 178 1 15 4 32 6 37 8 23 -20 74
-45 81 -15 3 -26 14 -28 27 -2 12 -9 21 -16 19 -8 -1 -11 2 -8 7 4 5 1 11 -6
13 -16 6 -2 26 36 49 25 15 27 19 11 19 -11 0 -26 -9 -33 -20 -14 -23 -52 -27
-52 -6 0 8 4 17 10 21 5 3 7 11 4 19 -3 7 0 25 5 39 15 39 -4 80 -31 66 -25
-14 -78 9 -78 34 0 10 -4 16 -9 12 -10 -5 -26 9 -51 44 -15 21 -35 27 -44 13z
m37 -47 c-7 -21 -12 -19 -10 4 0 11 5 18 9 15 4 -3 5 -11 1 -19z m8 -264 c162
-56 182 -88 204 -323 12 -126 13 -177 5 -214 -13 -59 -37 -109 -65 -140 l-21
-22 -12 27 c-7 16 -10 36 -6 45 5 14 2 16 -19 14 -15 -2 -29 -7 -33 -10 -9
-10 -47 29 -40 41 4 6 1 20 -6 32 -11 18 -11 22 0 26 10 4 10 8 1 19 -9 11
-15 12 -25 3 -12 -9 -12 -15 -2 -27 11 -13 10 -14 -2 -10 -8 2 -15 12 -15 21
0 28 -20 40 -44 27 -12 -6 -29 -9 -39 -6 -9 3 -26 -1 -37 -10 -17 -12 -18 -17
-7 -35 16 -26 11 -33 -45 -61 -55 -27 -83 -52 -83 -73 0 -37 -30 -3 -45 53 -4
12 -13 22 -21 22 -8 0 -14 5 -14 12 0 7 -12 23 -26 35 -37 32 -42 94 -16 214
12 52 24 121 27 153 6 54 11 63 53 104 63 60 84 73 145 88 75 18 126 17 188
-5z m-428 -136 c-3 -9 -8 -14 -10 -11 -3 3 -2 9 2 15 9 16 15 13 8 -4z m445
-547 c14 -17 19 -43 9 -43 -5 0 -14 -10 -21 -23 -12 -23 -13 -23 -28 17 -16
39 -19 41 -60 42 l-43 2 40 7 c64 12 92 11 103 -2z m-312 -475 c-7 -7 -26 7
-26 19 0 6 6 6 15 -2 9 -7 13 -15 11 -17z m-47 -14 c-22 -14 -33 -10 -19 6 7
8 17 12 22 9 6 -4 5 -10 -3 -15z"/>
<path d="M843 1635 c-12 -9 -20 -22 -17 -29 3 -8 -2 -26 -11 -40 -15 -23 -15
-26 -2 -26 9 0 19 9 22 21 4 11 18 24 32 30 32 12 52 12 33 -1 -12 -8 -12 -10
5 -10 12 0 3 -8 -25 -22 -50 -26 -63 -48 -28 -48 13 0 39 -1 58 -1 l35 0 -32
-10 c-18 -5 -35 -14 -39 -21 -11 -17 74 -3 95 16 10 9 25 16 34 16 17 0 24 27
18 79 -3 27 -10 36 -37 47 -44 18 -114 18 -141 -1z"/>
<path d="M1171 1640 c-33 -8 -59 -72 -41 -105 19 -36 110 -44 110 -9 0 8 5 14
10 14 6 0 10 -4 10 -10 0 -5 5 -10 12 -10 19 0 -21 38 -47 44 -29 7 -23 33 8
38 12 2 22 10 22 18 0 17 -49 29 -84 20z"/>
<path d="M1180 1365 c0 -22 50 -95 65 -95 29 0 1 67 -40 94 -22 14 -25 15 -25
1z"/>
<path d="M1289 835 c-3 -22 -9 -49 -13 -60 -4 -11 0 -7 9 8 9 15 15 42 13 60
-3 31 -4 31 -9 -8z"/>
<path d="M669 710 c0 -3 -3 -16 -6 -30 -6 -25 -8 -118 -4 -217 1 -30 8 -56 16
-63 8 -7 12 -17 9 -22 -4 -6 2 -5 14 1 15 8 21 8 25 -2 3 -9 7 -9 20 1 9 8 13
20 10 28 -3 8 0 14 7 14 13 0 -30 45 -49 51 -6 2 -13 51 -15 113 -3 60 -10
114 -16 120 -5 5 -10 8 -11 6z m65 -276 c6 -15 4 -15 -11 -3 -10 7 -20 15 -22
16 -2 2 3 3 11 3 9 0 19 -7 22 -16z"/>
<path d="M755 627 c-3 -7 3 -34 14 -59 11 -26 16 -50 13 -54 -4 -5 1 -2 11 5
12 10 15 17 8 24 -7 7 -6 16 5 28 14 16 14 18 -5 24 -12 3 -21 13 -21 20 0 20
-19 29 -25 12z"/>
<path d="M1734 579 c21 -68 37 -157 32 -180 -3 -14 -1 -30 4 -35 5 -5 10 -27
13 -49 2 -22 4 13 5 77 2 94 -1 120 -14 132 -8 9 -16 24 -17 34 0 10 -8 25
-16 32 -12 12 -13 11 -7 -11z"/>
<path d="M845 570 c-3 -6 1 -13 10 -16 13 -6 14 -8 3 -15 -9 -6 -5 -9 12 -9
l25 1 -22 18 c-12 10 -19 21 -16 25 4 3 4 6 0 6 -3 0 -9 -5 -12 -10z"/>
<path d="M810 505 c0 -8 -4 -15 -8 -15 -5 0 -9 -7 -9 -15 0 -8 4 -12 8 -10 8
5 22 -33 19 -54 -1 -9 4 -12 14 -8 9 4 16 2 16 -4 0 -6 5 -7 10 -4 6 4 8 11 5
16 -4 5 -1 9 5 9 7 0 5 6 -4 15 -8 8 -19 15 -25 15 -6 0 -8 12 -5 29 4 20 2
30 -10 34 -10 4 -16 1 -16 -8z"/>
<path d="M1078 513 c7 -3 16 -2 19 1 4 3 -2 6 -13 5 -11 0 -14 -3 -6 -6z"/>
<path d="M715 500 c3 -5 11 -10 16 -10 6 0 7 5 4 10 -3 6 -11 10 -16 10 -6 0
-7 -4 -4 -10z"/>
<path d="M1000 493 c5 -2 8 -9 4 -14 -3 -5 0 -9 6 -9 15 0 7 23 -8 26 -7 1 -8
0 -2 -3z"/>
<path d="M331 441 c-13 -23 -28 -102 -38 -196 -2 -27 -8 -67 -13 -87 l-8 -38
38 0 c24 0 40 5 44 15 3 8 11 15 18 15 16 0 17 62 1 67 -8 3 -9 13 -3 33 10
34 2 100 -13 119 -9 10 -7 16 8 27 10 8 13 14 6 14 -7 0 -9 5 -6 10 3 6 2 10
-4 10 -5 0 -11 8 -13 18 -3 14 -6 13 -17 -7z"/>
<path d="M169 433 c-1 -10 -3 -38 -4 -63 -2 -25 -7 -44 -13 -43 -7 2 -11 -35
-11 -102 l-1 -105 49 0 49 0 7 83 c13 167 13 177 -2 177 -8 0 -11 -4 -8 -10 3
-5 1 -10 -5 -10 -6 0 -9 -4 -6 -9 3 -5 -1 -12 -10 -15 -10 -4 -14 -14 -11 -26
3 -11 1 -20 -5 -20 -5 0 -7 -4 -3 -9 3 -5 0 -13 -6 -16 -7 -5 -8 21 -3 89 5
69 4 96 -5 96 -6 0 -12 -8 -12 -17z m19 -209 c-7 -15 -14 -21 -16 -15 -5 16 5
41 17 41 7 0 6 -10 -1 -26z"/>
<path d="M252 410 c0 -14 2 -19 5 -12 2 6 2 18 0 25 -3 6 -5 1 -5 -13z"/>
<path d="M820 381 c0 -6 5 -13 10 -16 6 -3 10 1 10 9 0 9 -4 16 -10 16 -5 0
-10 -4 -10 -9z"/>
<path d="M700 361 c0 -6 5 -13 10 -16 6 -4 8 -11 5 -16 -4 -5 3 -9 14 -9 22 0
40 -20 19 -21 -7 0 -2 -5 11 -10 32 -13 48 3 26 25 -9 9 -14 23 -11 31 3 8 1
17 -4 20 -6 4 -10 2 -10 -4 0 -7 -8 -7 -26 -1 -31 12 -34 12 -34 1z"/>
<path d="M1145 350 c3 -5 8 -10 11 -10 2 0 4 5 4 10 0 6 -5 10 -11 10 -5 0 -7
-4 -4 -10z"/>
<path d="M680 336 c0 -9 5 -16 10 -16 6 0 10 -4 10 -9 0 -5 -10 -7 -22 -4 -18
3 -19 2 -8 -5 20 -12 69 -26 53 -15 -7 5 -14 20 -16 33 -4 27 -27 40 -27 16z"/>
<path d="M1026 319 c5 -9 31 -6 40 4 4 4 -4 6 -19 5 -14 -1 -24 -5 -21 -9z"/>
<path d="M900 300 c0 -5 5 -10 10 -10 6 0 10 5 10 10 0 6 -4 10 -10 10 -5 0
-10 -4 -10 -10z"/>
<path d="M1090 299 c0 -5 5 -7 10 -4 6 3 10 8 10 11 0 2 -4 4 -10 4 -5 0 -10
-5 -10 -11z"/>
<path d="M1167 304 c-4 -4 -7 -14 -7 -23 0 -11 3 -12 11 -4 6 6 10 16 7 23 -2
6 -7 8 -11 4z"/>
<path d="M1041 284 c11 -14 11 -18 -4 -29 -14 -10 -15 -14 -5 -18 10 -4 10 -7
1 -14 -7 -5 -9 -14 -3 -22 12 -21 -9 -49 -33 -43 -19 5 -19 4 -1 -17 15 -17
29 -21 77 -21 38 0 56 4 52 10 -4 6 -14 8 -24 5 -12 -4 -16 1 -15 18 1 12 4
29 7 37 15 44 15 50 -1 59 -10 6 -12 11 -4 11 6 0 12 5 12 12 0 9 -3 9 -12 0
-16 -16 -28 -15 -28 2 0 8 -7 17 -16 20 -15 6 -15 4 -3 -10z m19 -140 c0 -8
-6 -14 -13 -14 -7 0 -13 8 -13 19 0 11 5 17 13 14 7 -3 13 -11 13 -19z"/>
<path d="M895 239 c2 -28 15 -36 15 -9 l0 23 20 -23 c11 -13 20 -18 20 -11 0
9 4 8 14 -1 18 -17 11 -27 -14 -21 -15 4 -20 0 -20 -16 0 -13 -6 -21 -17 -21
-17 -1 -17 -1 0 -11 10 -6 14 -15 10 -22 -4 -7 0 -6 10 2 11 9 17 10 17 2 0
-6 9 -11 20 -11 28 0 25 17 -5 24 -14 4 -25 11 -25 17 0 6 6 9 14 6 7 -3 20 3
29 14 15 17 15 20 0 35 -15 14 -53 34 -79 39 -6 2 -10 -6 -9 -16z"/>
<path d="M1140 234 c0 -8 5 -12 10 -9 6 3 10 10 10 16 0 5 -4 9 -10 9 -5 0
-10 -7 -10 -16z"/>
<path d="M260 200 c0 -5 5 -10 11 -10 5 0 7 5 4 10 -3 6 -8 10 -11 10 -2 0 -4
-4 -4 -10z"/>
<path d="M1135 200 c-3 -5 1 -10 9 -10 9 0 16 5 16 10 0 6 -4 10 -9 10 -6 0
-13 -4 -16 -10z"/>
<path d="M1125 170 c3 -5 10 -10 16 -10 5 0 9 5 9 10 0 6 -7 10 -16 10 -8 0
-12 -4 -9 -10z"/>
</g>
</svg>
